USFL
nRows=153
nColumns=2
inDegrees=yes
endheader
time	med_gas_r	
2.18736	 42.275394	
2.24986	 42.259518	
2.31235	 43.184673	
2.37485	 43.127421	
2.43734	 43.124893	
2.49984	 43.160734	
2.56234	 42.960878	
2.62483	 41.486286	
2.68733	 41.493687	
2.74982	 41.350186	
2.81232	 41.238006	
2.87482	 41.244688	
2.93731	 41.344679	
2.99981	 41.346286	
3.0623	 41.408625	
3.1248	 41.243660	
3.1873	 41.491318	
3.24979	 41.424827	
3.31229	 41.336888	
3.37478	 41.323000	
3.43728	 41.351633	
3.49978	 41.474372	
3.56227	 41.463206	
3.62477	 41.429571	
3.68726	 41.375783	
3.74976	 41.327698	
3.81226	 41.384516	
3.87475	 41.360656	
3.93725	 41.281221	
3.99974	 41.258844	
4.06224	 41.204773	
4.12474	 41.395179	
4.18723	 41.378183	
4.24973	 40.394839	
4.31222	 40.382126	
4.37472	 40.520076	
4.43722	 39.489203	
4.49971	 38.233546	
4.56221	 38.011406	
4.6247	 38.475807	
4.6872	 38.190421	
4.7497	 38.011955	
4.81219	 37.820138	
4.87469	 37.839238	
4.93718	 36.496841	
4.99968	 36.496289	
5.06218	 36.503286	
5.12467	 36.824031	
5.18717	 36.751509	
5.24966	 36.802411	
5.31216	 36.819121	
5.37466	 36.972999	
5.43715	 37.098005	
5.49965	 37.069931	
5.56214	 36.998422	
5.62464	 36.982600	
5.68714	 37.002500	
5.74963	 36.919962	
5.81213	 36.888202	
5.87462	 36.926683	
5.93712	 36.783180	
5.99962	 36.687569	
6.06211	 36.743492	
6.12461	 36.750145	
6.1871	 36.674210	
6.2496	 36.618055	
6.3121	 36.448364	
6.37459	 36.325323	
6.43709	 36.227048	
6.49958	 36.273052	
6.56208	 36.257789	
6.62458	 36.319713	
6.68707	 36.436629	
6.74957	 36.498640	
6.81206	 36.449167	
6.87456	 36.182640	
6.93706	 36.190692	
6.99955	 36.282964	
7.06205	 36.593977	
7.12454	 36.481384	
7.18704	 36.425227	
7.24954	 36.311228	
7.31203	 36.293984	
7.37453	 36.428367	
7.43702	 36.544533	
7.49952	 36.472949	
7.56202	 36.421984	
7.62451	 36.458134	
7.68701	 36.474308	
7.7495	 36.819460	
7.812	 37.649611	
7.8745	 37.680248	
7.93699	 37.753922	
7.99949	 37.731391	
8.06198	 37.626339	
8.12448	 37.401010	
8.18698	 37.557260	
8.24947	 37.424865	
8.31197	 37.586474	
8.37446	 38.489955	
8.43696	 38.608080	
8.49946	 38.348339	
8.56195	 38.732088	
8.62445	 38.001215	
8.68694	 37.906962	
8.74944	 37.907413	
8.81194	 38.094767	
8.87443	 37.954593	
8.93693	 37.951575	
8.99942	 37.964183	
9.06192	 38.112493	
9.12442	 38.164998	
9.18691	 38.255931	
9.24941	 38.262678	
9.3119	 38.103967	
9.3744	 38.154382	
9.4369	 38.321931	
9.49939	 38.577008	
9.56189	 38.554422	
9.62438	 38.454536	
9.68688	 38.451492	
9.74938	 38.568600	
9.81187	 38.526489	
9.87437	 38.491876	
9.93686	 38.578216	
9.99936	 38.644323	
10.0619	 38.508624	
10.1244	 38.454681	
10.1868	 38.357489	
10.2493	 38.435391	
10.3118	 39.799656	
10.3743	 40.195069	
10.4368	 41.105040	
10.4993	 41.033693	
10.5618	 44.654211	
10.6243	 44.788234	
10.6868	 45.543641	
10.7493	 45.227548	
10.8118	 44.912679	
10.8743	 44.651452	
10.9368	 44.622065	
10.9993	 44.460905	
11.0618	 44.457953	
11.1243	 44.404098	
11.1868	 44.470791	
11.2493	 44.405439	
11.3118	 44.050459	
11.3743	 44.064577	
11.4368	 44.153188	
11.4993	 44.211555	
11.5618	 44.254503	
11.6243	 44.266587	
11.6868	 44.106335	
